<svg xmlns="http://www.w3.org/2000/svg" width="180.4" height="35" viewBox="0 0 180.4 35"><rect class="svg__rect" x="0" y="0" width="87.73" height="35" fill="#00457C"/><rect class="svg__rect" x="85.73" y="0" width="94.67" height="35" fill="#0079C1"/><path class="svg__text" d="M16.67 22L14.22 22L14.22 13.47L16.74 13.47Q17.87 13.47 18.74 13.97Q19.62 14.48 20.10 15.40Q20.58 16.33 20.58 17.52L20.58 17.52L20.58 17.95Q20.58 19.16 20.10 20.08Q19.61 21.00 18.72 21.50Q17.83 22 16.67 22L16.67 22ZM15.70 14.66L15.70 20.82L16.67 20.82Q17.83 20.82 18.46 20.09Q19.08 19.36 19.09 17.99L19.09 17.99L19.09 17.52Q19.09 16.13 18.49 15.40Q17.89 14.66 16.74 14.66L16.74 14.66L15.70 14.66ZM24.78 18.00L24.78 18.00L24.78 17.52Q24.78 16.28 25.22 15.32Q25.66 14.37 26.47 13.86Q27.27 13.35 28.31 13.35Q29.36 13.35 30.16 13.85Q30.97 14.35 31.41 15.29Q31.85 16.23 31.85 17.48L31.85 17.48L31.85 17.96Q31.85 19.21 31.42 20.16Q30.99 21.10 30.18 21.61Q29.38 22.12 28.33 22.12L28.33 22.12Q27.29 22.12 26.48 21.61Q25.67 21.10 25.22 20.17Q24.78 19.23 24.78 18.00ZM26.26 17.46L26.26 17.96Q26.26 19.36 26.81 20.13Q27.35 20.90 28.33 20.90L28.33 20.90Q29.31 20.90 29.84 20.15Q30.37 19.40 30.37 17.96L30.37 17.96L30.37 17.51Q30.37 16.09 29.84 15.34Q29.30 14.58 28.31 14.58L28.31 14.58Q27.35 14.58 26.81 15.33Q26.27 16.09 26.26 17.46L26.26 17.46ZM37.80 22L36.32 22L36.32 13.47L37.80 13.47L41.62 19.54L41.62 13.47L43.09 13.47L43.09 22L41.60 22L37.80 15.95L37.80 22ZM48.61 22L47.06 22L50.29 13.47L51.62 13.47L54.85 22L53.30 22L52.60 20.01L49.30 20.01L48.61 22ZM50.95 15.28L49.71 18.82L52.19 18.82L50.95 15.28ZM60.48 14.66L57.85 14.66L57.85 13.47L64.61 13.47L64.61 14.66L61.95 14.66L61.95 22L60.48 22L60.48 14.66ZM73.95 22L68.37 22L68.37 13.47L73.91 13.47L73.91 14.66L69.85 14.66L69.85 17.02L73.36 17.02L73.36 18.19L69.85 18.19L69.85 20.82L73.95 20.82L73.95 22Z" fill="#FFFFFF"/><path class="svg__text" d="M102.30 22L99.92 22L99.92 13.60L103.76 13.60Q104.90 13.60 105.74 13.98Q106.58 14.35 107.04 15.06Q107.49 15.76 107.49 16.71L107.49 16.71Q107.49 17.66 107.04 18.35Q106.58 19.05 105.74 19.42Q104.90 19.80 103.76 19.80L103.76 19.80L102.30 19.80L102.30 22ZM102.30 15.47L102.30 17.93L103.62 17.93Q104.35 17.93 104.72 17.61Q105.09 17.29 105.09 16.71L105.09 16.71Q105.09 16.12 104.72 15.80Q104.35 15.47 103.62 15.47L103.62 15.47L102.30 15.47ZM113.66 22L111.24 22L114.95 13.60L117.29 13.60L121.01 22L118.54 22L117.88 20.37L114.33 20.37L113.66 22ZM116.10 15.93L115.02 18.61L117.18 18.61L116.10 15.93ZM127.29 18.95L124.08 13.60L126.59 13.60L128.58 16.94L130.57 13.60L132.88 13.60L129.66 18.99L129.66 22L127.29 22L127.29 18.95ZM139.34 22L136.96 22L136.96 13.60L140.80 13.60Q141.94 13.60 142.78 13.98Q143.62 14.35 144.08 15.06Q144.54 15.76 144.54 16.71L144.54 16.71Q144.54 17.66 144.08 18.35Q143.62 19.05 142.78 19.42Q141.94 19.80 140.80 19.80L140.80 19.80L139.34 19.80L139.34 22ZM139.34 15.47L139.34 17.93L140.66 17.93Q141.39 17.93 141.76 17.61Q142.13 17.29 142.13 16.71L142.13 16.71Q142.13 16.12 141.76 15.80Q141.39 15.47 140.66 15.47L140.66 15.47L139.34 15.47ZM150.71 22L148.28 22L151.99 13.60L154.33 13.60L158.05 22L155.58 22L154.92 20.37L151.37 20.37L150.71 22ZM153.14 15.93L152.06 18.61L154.22 18.61L153.14 15.93ZM168.59 22L162.20 22L162.20 13.60L164.58 13.60L164.58 20.11L168.59 20.11L168.59 22Z" fill="#FFFFFF" x="98.73"/></svg>